<mxfile host="app.diagrams.net" modified="2024-02-27T10:00:31.795Z" agent="Mozilla/5.0 (Windows NT 10.0; Win64; x64) AppleWebKit/537.36 (KHTML, like Gecko) Chrome/122.0.0.0 Safari/537.36" etag="ajCBL2cqoy9jmxQb8VD1" version="23.1.7" type="github">
  <diagram name="Page-1" id="WF8opbO4W5HsNm3-R-f4">
    <mxGraphModel dx="1690" dy="418" grid="1" gridSize="10" guides="1" tooltips="1" connect="1" arrows="1" fold="1" page="1" pageScale="1" pageWidth="850" pageHeight="1100" math="0" shadow="0">
      <root>
        <mxCell id="0" />
        <mxCell id="1" parent="0" />
        <mxCell id="Te6tt9Ck92rcXe0SvWjM-3" value="" style="edgeStyle=orthogonalEdgeStyle;rounded=0;orthogonalLoop=1;jettySize=auto;html=1;noEdgeStyle=1;orthogonal=1;fontSize=12;" parent="1" source="Te6tt9Ck92rcXe0SvWjM-1" target="Te6tt9Ck92rcXe0SvWjM-2" edge="1">
          <mxGeometry relative="1" as="geometry">
            <Array as="points" />
          </mxGeometry>
        </mxCell>
        <mxCell id="Te6tt9Ck92rcXe0SvWjM-5" value="" style="edgeStyle=orthogonalEdgeStyle;rounded=0;orthogonalLoop=1;jettySize=auto;html=1;noEdgeStyle=1;orthogonal=1;fontSize=12;" parent="1" source="Te6tt9Ck92rcXe0SvWjM-1" target="Te6tt9Ck92rcXe0SvWjM-4" edge="1">
          <mxGeometry relative="1" as="geometry">
            <Array as="points" />
          </mxGeometry>
        </mxCell>
        <mxCell id="Te6tt9Ck92rcXe0SvWjM-7" value="" style="edgeStyle=orthogonalEdgeStyle;rounded=0;orthogonalLoop=1;jettySize=auto;html=1;noEdgeStyle=1;orthogonal=1;fontSize=12;" parent="1" source="Te6tt9Ck92rcXe0SvWjM-1" target="Te6tt9Ck92rcXe0SvWjM-6" edge="1">
          <mxGeometry relative="1" as="geometry">
            <Array as="points" />
          </mxGeometry>
        </mxCell>
        <mxCell id="Te6tt9Ck92rcXe0SvWjM-9" value="" style="edgeStyle=orthogonalEdgeStyle;rounded=0;orthogonalLoop=1;jettySize=auto;html=1;noEdgeStyle=1;orthogonal=1;fontSize=12;" parent="1" source="Te6tt9Ck92rcXe0SvWjM-1" target="Te6tt9Ck92rcXe0SvWjM-8" edge="1">
          <mxGeometry relative="1" as="geometry">
            <Array as="points" />
          </mxGeometry>
        </mxCell>
        <mxCell id="Te6tt9Ck92rcXe0SvWjM-1" value="K8s yaml file" style="ellipse;whiteSpace=wrap;html=1;fontStyle=1;fontSize=21;" parent="1" vertex="1">
          <mxGeometry x="611" y="452" width="150" height="40" as="geometry" />
        </mxCell>
        <mxCell id="Te6tt9Ck92rcXe0SvWjM-62" value="" style="edgeStyle=orthogonalEdgeStyle;rounded=0;orthogonalLoop=1;jettySize=auto;html=1;noEdgeStyle=1;fontSize=12;" parent="1" source="Te6tt9Ck92rcXe0SvWjM-2" target="Te6tt9Ck92rcXe0SvWjM-61" edge="1">
          <mxGeometry relative="1" as="geometry">
            <Array as="points" />
          </mxGeometry>
        </mxCell>
        <mxCell id="Te6tt9Ck92rcXe0SvWjM-71" value="" style="edgeStyle=orthogonalEdgeStyle;rounded=0;orthogonalLoop=1;jettySize=auto;html=1;noEdgeStyle=1;fontSize=12;" parent="1" source="Te6tt9Ck92rcXe0SvWjM-2" target="Te6tt9Ck92rcXe0SvWjM-70" edge="1">
          <mxGeometry relative="1" as="geometry">
            <Array as="points" />
          </mxGeometry>
        </mxCell>
        <mxCell id="Te6tt9Ck92rcXe0SvWjM-2" value="apiVersion:" style="ellipse;whiteSpace=wrap;html=1;shadow=0;fontStyle=4;fontSize=17;" parent="1" vertex="1">
          <mxGeometry x="741" y="392" width="110" height="30" as="geometry" />
        </mxCell>
        <mxCell id="Te6tt9Ck92rcXe0SvWjM-64" value="" style="edgeStyle=orthogonalEdgeStyle;rounded=0;orthogonalLoop=1;jettySize=auto;html=1;noEdgeStyle=1;fontSize=12;" parent="1" source="Te6tt9Ck92rcXe0SvWjM-4" target="Te6tt9Ck92rcXe0SvWjM-63" edge="1">
          <mxGeometry relative="1" as="geometry">
            <Array as="points" />
          </mxGeometry>
        </mxCell>
        <mxCell id="Te6tt9Ck92rcXe0SvWjM-76" style="edgeStyle=orthogonalEdgeStyle;rounded=0;orthogonalLoop=1;jettySize=auto;html=1;entryDx=0;entryDy=0;noEdgeStyle=1;fontSize=12;" parent="1" source="Te6tt9Ck92rcXe0SvWjM-4" target="Te6tt9Ck92rcXe0SvWjM-74" edge="1">
          <mxGeometry relative="1" as="geometry">
            <Array as="points" />
          </mxGeometry>
        </mxCell>
        <mxCell id="Te6tt9Ck92rcXe0SvWjM-108" style="edgeStyle=orthogonalEdgeStyle;rounded=0;orthogonalLoop=1;jettySize=auto;html=1;entryDx=0;entryDy=0;noEdgeStyle=1;fontSize=12;" parent="1" source="Te6tt9Ck92rcXe0SvWjM-4" target="Te6tt9Ck92rcXe0SvWjM-107" edge="1">
          <mxGeometry relative="1" as="geometry">
            <Array as="points" />
          </mxGeometry>
        </mxCell>
        <mxCell id="cD0YtMm21OA0cVFLO4rJ-8" style="edgeStyle=orthogonalEdgeStyle;rounded=0;orthogonalLoop=1;jettySize=auto;html=1;entryX=0.5;entryY=0;entryDx=0;entryDy=0;noEdgeStyle=1;" edge="1" parent="1" source="Te6tt9Ck92rcXe0SvWjM-4" target="cD0YtMm21OA0cVFLO4rJ-5">
          <mxGeometry relative="1" as="geometry" />
        </mxCell>
        <mxCell id="Te6tt9Ck92rcXe0SvWjM-4" value="kind:" style="ellipse;whiteSpace=wrap;html=1;fontStyle=4;fontSize=17;" parent="1" vertex="1">
          <mxGeometry x="761" y="542" width="60" height="30" as="geometry" />
        </mxCell>
        <mxCell id="Te6tt9Ck92rcXe0SvWjM-18" value="" style="edgeStyle=orthogonalEdgeStyle;rounded=0;orthogonalLoop=1;jettySize=auto;html=1;noEdgeStyle=1;orthogonal=1;fontSize=12;" parent="1" source="Te6tt9Ck92rcXe0SvWjM-6" target="Te6tt9Ck92rcXe0SvWjM-17" edge="1">
          <mxGeometry relative="1" as="geometry">
            <Array as="points" />
          </mxGeometry>
        </mxCell>
        <mxCell id="Te6tt9Ck92rcXe0SvWjM-20" value="" style="edgeStyle=orthogonalEdgeStyle;rounded=0;orthogonalLoop=1;jettySize=auto;html=1;noEdgeStyle=1;orthogonal=1;fontSize=12;" parent="1" source="Te6tt9Ck92rcXe0SvWjM-6" target="Te6tt9Ck92rcXe0SvWjM-19" edge="1">
          <mxGeometry relative="1" as="geometry">
            <Array as="points" />
          </mxGeometry>
        </mxCell>
        <mxCell id="Te6tt9Ck92rcXe0SvWjM-6" value="metadata:" style="ellipse;whiteSpace=wrap;html=1;fontStyle=4;fontSize=17;" parent="1" vertex="1">
          <mxGeometry x="541" y="372" width="100" height="30" as="geometry" />
        </mxCell>
        <mxCell id="Te6tt9Ck92rcXe0SvWjM-78" value="" style="edgeStyle=orthogonalEdgeStyle;rounded=0;orthogonalLoop=1;jettySize=auto;html=1;noEdgeStyle=1;fontSize=12;" parent="1" source="Te6tt9Ck92rcXe0SvWjM-8" target="Te6tt9Ck92rcXe0SvWjM-77" edge="1">
          <mxGeometry relative="1" as="geometry">
            <Array as="points" />
          </mxGeometry>
        </mxCell>
        <mxCell id="Te6tt9Ck92rcXe0SvWjM-8" value="spec:" style="ellipse;whiteSpace=wrap;html=1;fontStyle=4;fontSize=17;" parent="1" vertex="1">
          <mxGeometry x="541" y="532" width="60" height="30" as="geometry" />
        </mxCell>
        <mxCell id="Te6tt9Ck92rcXe0SvWjM-100" style="edgeStyle=orthogonalEdgeStyle;rounded=0;orthogonalLoop=1;jettySize=auto;html=1;entryDx=0;entryDy=0;noEdgeStyle=1;fontSize=12;" parent="1" source="Te6tt9Ck92rcXe0SvWjM-17" target="Te6tt9Ck92rcXe0SvWjM-35" edge="1">
          <mxGeometry relative="1" as="geometry">
            <Array as="points" />
          </mxGeometry>
        </mxCell>
        <mxCell id="Te6tt9Ck92rcXe0SvWjM-17" value="name:" style="ellipse;whiteSpace=wrap;html=1;fontSize=12;" parent="1" vertex="1">
          <mxGeometry x="511" y="292" width="60" height="30" as="geometry" />
        </mxCell>
        <mxCell id="Te6tt9Ck92rcXe0SvWjM-22" value="" style="edgeStyle=orthogonalEdgeStyle;rounded=0;orthogonalLoop=1;jettySize=auto;html=1;noEdgeStyle=1;orthogonal=1;fontSize=12;" parent="1" source="Te6tt9Ck92rcXe0SvWjM-19" target="Te6tt9Ck92rcXe0SvWjM-21" edge="1">
          <mxGeometry relative="1" as="geometry">
            <Array as="points" />
          </mxGeometry>
        </mxCell>
        <mxCell id="Te6tt9Ck92rcXe0SvWjM-49" value="" style="edgeStyle=orthogonalEdgeStyle;rounded=0;orthogonalLoop=1;jettySize=auto;html=1;noEdgeStyle=1;fontSize=12;" parent="1" source="Te6tt9Ck92rcXe0SvWjM-19" target="Te6tt9Ck92rcXe0SvWjM-48" edge="1">
          <mxGeometry relative="1" as="geometry">
            <Array as="points" />
          </mxGeometry>
        </mxCell>
        <mxCell id="Te6tt9Ck92rcXe0SvWjM-19" value="labels:" style="ellipse;whiteSpace=wrap;html=1;fontSize=12;" parent="1" vertex="1">
          <mxGeometry x="601" y="222" width="60" height="30" as="geometry" />
        </mxCell>
        <mxCell id="Te6tt9Ck92rcXe0SvWjM-104" style="edgeStyle=orthogonalEdgeStyle;rounded=0;orthogonalLoop=1;jettySize=auto;html=1;entryDx=0;entryDy=0;noEdgeStyle=1;fontSize=12;" parent="1" source="Te6tt9Ck92rcXe0SvWjM-21" target="Te6tt9Ck92rcXe0SvWjM-103" edge="1">
          <mxGeometry relative="1" as="geometry">
            <Array as="points" />
          </mxGeometry>
        </mxCell>
        <mxCell id="Te6tt9Ck92rcXe0SvWjM-21" value="app:" style="ellipse;whiteSpace=wrap;html=1;fontSize=12;" parent="1" vertex="1">
          <mxGeometry x="581" y="122" width="50" height="30" as="geometry" />
        </mxCell>
        <mxCell id="Te6tt9Ck92rcXe0SvWjM-28" value="" style="edgeStyle=orthogonalEdgeStyle;rounded=0;orthogonalLoop=1;jettySize=auto;html=1;noEdgeStyle=1;orthogonal=1;fontSize=12;" parent="1" source="Te6tt9Ck92rcXe0SvWjM-23" target="Te6tt9Ck92rcXe0SvWjM-27" edge="1">
          <mxGeometry relative="1" as="geometry">
            <Array as="points" />
          </mxGeometry>
        </mxCell>
        <mxCell id="Te6tt9Ck92rcXe0SvWjM-23" value="containers:" style="ellipse;whiteSpace=wrap;html=1;fontSize=12;" parent="1" vertex="1">
          <mxGeometry x="491" y="772" width="80" height="30" as="geometry" />
        </mxCell>
        <mxCell id="Te6tt9Ck92rcXe0SvWjM-30" value="" style="edgeStyle=orthogonalEdgeStyle;rounded=0;orthogonalLoop=1;jettySize=auto;html=1;noEdgeStyle=1;orthogonal=1;fontSize=12;" parent="1" source="Te6tt9Ck92rcXe0SvWjM-27" target="Te6tt9Ck92rcXe0SvWjM-29" edge="1">
          <mxGeometry relative="1" as="geometry">
            <Array as="points" />
          </mxGeometry>
        </mxCell>
        <mxCell id="Te6tt9Ck92rcXe0SvWjM-32" value="" style="edgeStyle=orthogonalEdgeStyle;rounded=0;orthogonalLoop=1;jettySize=auto;html=1;noEdgeStyle=1;orthogonal=1;fontSize=12;" parent="1" source="Te6tt9Ck92rcXe0SvWjM-27" target="Te6tt9Ck92rcXe0SvWjM-31" edge="1">
          <mxGeometry relative="1" as="geometry">
            <Array as="points" />
          </mxGeometry>
        </mxCell>
        <mxCell id="Te6tt9Ck92rcXe0SvWjM-54" value="" style="edgeStyle=orthogonalEdgeStyle;rounded=0;orthogonalLoop=1;jettySize=auto;html=1;noEdgeStyle=1;fontSize=12;" parent="1" source="Te6tt9Ck92rcXe0SvWjM-27" target="Te6tt9Ck92rcXe0SvWjM-53" edge="1">
          <mxGeometry relative="1" as="geometry">
            <Array as="points" />
          </mxGeometry>
        </mxCell>
        <mxCell id="Te6tt9Ck92rcXe0SvWjM-27" value="-" style="ellipse;whiteSpace=wrap;html=1;fontSize=12;" parent="1" vertex="1">
          <mxGeometry x="551" y="912" width="30" height="30" as="geometry" />
        </mxCell>
        <mxCell id="Te6tt9Ck92rcXe0SvWjM-42" value="" style="edgeStyle=orthogonalEdgeStyle;rounded=0;orthogonalLoop=1;jettySize=auto;html=1;noEdgeStyle=1;fontSize=12;" parent="1" source="Te6tt9Ck92rcXe0SvWjM-29" target="Te6tt9Ck92rcXe0SvWjM-41" edge="1">
          <mxGeometry relative="1" as="geometry">
            <Array as="points" />
          </mxGeometry>
        </mxCell>
        <mxCell id="Te6tt9Ck92rcXe0SvWjM-29" value="name:" style="ellipse;whiteSpace=wrap;html=1;fontSize=12;" parent="1" vertex="1">
          <mxGeometry x="451" y="942" width="60" height="30" as="geometry" />
        </mxCell>
        <mxCell id="Te6tt9Ck92rcXe0SvWjM-40" value="" style="edgeStyle=orthogonalEdgeStyle;rounded=0;orthogonalLoop=1;jettySize=auto;html=1;noEdgeStyle=1;fontSize=12;" parent="1" source="Te6tt9Ck92rcXe0SvWjM-31" target="Te6tt9Ck92rcXe0SvWjM-39" edge="1">
          <mxGeometry relative="1" as="geometry">
            <Array as="points" />
          </mxGeometry>
        </mxCell>
        <mxCell id="Te6tt9Ck92rcXe0SvWjM-31" value="image:" style="ellipse;whiteSpace=wrap;html=1;fontSize=12;" parent="1" vertex="1">
          <mxGeometry x="511" y="1002" width="60" height="30" as="geometry" />
        </mxCell>
        <mxCell id="Te6tt9Ck92rcXe0SvWjM-35" value="" style="whiteSpace=wrap;html=1;fontSize=12;" parent="1" vertex="1">
          <mxGeometry x="471" y="222" width="50" height="40" as="geometry" />
        </mxCell>
        <mxCell id="Te6tt9Ck92rcXe0SvWjM-39" value="" style="whiteSpace=wrap;html=1;fontSize=12;" parent="1" vertex="1">
          <mxGeometry x="491" y="1082" width="50" height="40" as="geometry" />
        </mxCell>
        <mxCell id="Te6tt9Ck92rcXe0SvWjM-41" value="" style="whiteSpace=wrap;html=1;fontSize=12;" parent="1" vertex="1">
          <mxGeometry x="381" y="982" width="50" height="40" as="geometry" />
        </mxCell>
        <mxCell id="Te6tt9Ck92rcXe0SvWjM-105" style="edgeStyle=orthogonalEdgeStyle;rounded=0;orthogonalLoop=1;jettySize=auto;html=1;noEdgeStyle=1;fontSize=12;" parent="1" source="Te6tt9Ck92rcXe0SvWjM-48" target="Te6tt9Ck92rcXe0SvWjM-102" edge="1">
          <mxGeometry relative="1" as="geometry">
            <Array as="points" />
          </mxGeometry>
        </mxCell>
        <mxCell id="Te6tt9Ck92rcXe0SvWjM-48" value="tier:" style="ellipse;whiteSpace=wrap;html=1;fontSize=12;" parent="1" vertex="1">
          <mxGeometry x="681" y="122" width="40" height="30" as="geometry" />
        </mxCell>
        <mxCell id="Te6tt9Ck92rcXe0SvWjM-56" value="" style="edgeStyle=orthogonalEdgeStyle;rounded=0;orthogonalLoop=1;jettySize=auto;html=1;noEdgeStyle=1;fontSize=12;" parent="1" source="Te6tt9Ck92rcXe0SvWjM-53" target="Te6tt9Ck92rcXe0SvWjM-55" edge="1">
          <mxGeometry relative="1" as="geometry">
            <Array as="points" />
          </mxGeometry>
        </mxCell>
        <mxCell id="Te6tt9Ck92rcXe0SvWjM-53" value="env:" style="ellipse;whiteSpace=wrap;html=1;fontSize=12;" parent="1" vertex="1">
          <mxGeometry x="621" y="1002" width="50" height="30" as="geometry" />
        </mxCell>
        <mxCell id="Te6tt9Ck92rcXe0SvWjM-58" value="" style="edgeStyle=orthogonalEdgeStyle;rounded=0;orthogonalLoop=1;jettySize=auto;html=1;noEdgeStyle=1;fontSize=12;" parent="1" source="Te6tt9Ck92rcXe0SvWjM-55" target="Te6tt9Ck92rcXe0SvWjM-57" edge="1">
          <mxGeometry relative="1" as="geometry">
            <Array as="points" />
          </mxGeometry>
        </mxCell>
        <mxCell id="Te6tt9Ck92rcXe0SvWjM-60" value="" style="edgeStyle=orthogonalEdgeStyle;rounded=0;orthogonalLoop=1;jettySize=auto;html=1;noEdgeStyle=1;fontSize=12;" parent="1" source="Te6tt9Ck92rcXe0SvWjM-55" target="Te6tt9Ck92rcXe0SvWjM-59" edge="1">
          <mxGeometry relative="1" as="geometry">
            <Array as="points" />
          </mxGeometry>
        </mxCell>
        <mxCell id="Te6tt9Ck92rcXe0SvWjM-55" value="-" style="ellipse;whiteSpace=wrap;html=1;fontSize=12;" parent="1" vertex="1">
          <mxGeometry x="691" y="1092" width="30" height="30" as="geometry" />
        </mxCell>
        <mxCell id="Te6tt9Ck92rcXe0SvWjM-66" value="" style="edgeStyle=orthogonalEdgeStyle;rounded=0;orthogonalLoop=1;jettySize=auto;html=1;noEdgeStyle=1;fontSize=12;" parent="1" source="Te6tt9Ck92rcXe0SvWjM-57" target="Te6tt9Ck92rcXe0SvWjM-65" edge="1">
          <mxGeometry relative="1" as="geometry">
            <Array as="points" />
          </mxGeometry>
        </mxCell>
        <mxCell id="Te6tt9Ck92rcXe0SvWjM-57" value="name:" style="ellipse;whiteSpace=wrap;html=1;fontSize=12;" parent="1" vertex="1">
          <mxGeometry x="761" y="1102" width="60" height="30" as="geometry" />
        </mxCell>
        <mxCell id="Te6tt9Ck92rcXe0SvWjM-69" value="" style="edgeStyle=orthogonalEdgeStyle;rounded=0;orthogonalLoop=1;jettySize=auto;html=1;noEdgeStyle=1;fontSize=12;" parent="1" source="Te6tt9Ck92rcXe0SvWjM-59" target="Te6tt9Ck92rcXe0SvWjM-68" edge="1">
          <mxGeometry relative="1" as="geometry">
            <Array as="points" />
          </mxGeometry>
        </mxCell>
        <mxCell id="Te6tt9Ck92rcXe0SvWjM-59" value="value:" style="ellipse;whiteSpace=wrap;html=1;fontSize=12;" parent="1" vertex="1">
          <mxGeometry x="671" y="1182" width="60" height="30" as="geometry" />
        </mxCell>
        <mxCell id="Te6tt9Ck92rcXe0SvWjM-61" value="v1" style="whiteSpace=wrap;html=1;fontSize=12;" parent="1" vertex="1">
          <mxGeometry x="811" y="312" width="40" height="30" as="geometry" />
        </mxCell>
        <mxCell id="Te6tt9Ck92rcXe0SvWjM-63" value="Pod" style="whiteSpace=wrap;html=1;fontSize=12;" parent="1" vertex="1">
          <mxGeometry x="871" y="562" width="40" height="30" as="geometry" />
        </mxCell>
        <mxCell id="Te6tt9Ck92rcXe0SvWjM-65" value="" style="whiteSpace=wrap;html=1;fontSize=12;" parent="1" vertex="1">
          <mxGeometry x="851" y="1102" width="50" height="40" as="geometry" />
        </mxCell>
        <mxCell id="Te6tt9Ck92rcXe0SvWjM-68" value="" style="whiteSpace=wrap;html=1;fontSize=12;" parent="1" vertex="1">
          <mxGeometry x="681" y="1272" width="50" height="40" as="geometry" />
        </mxCell>
        <mxCell id="Te6tt9Ck92rcXe0SvWjM-70" value="apps/v1" style="whiteSpace=wrap;html=1;shadow=0;fontStyle=4;fontSize=12;" parent="1" vertex="1">
          <mxGeometry x="851" y="382" width="70" height="30" as="geometry" />
        </mxCell>
        <mxCell id="Te6tt9Ck92rcXe0SvWjM-74" value="ReplicaSet" style="rounded=0;whiteSpace=wrap;html=1;fontSize=12;" parent="1" vertex="1">
          <mxGeometry x="721" y="612" width="80" height="30" as="geometry" />
        </mxCell>
        <mxCell id="Te6tt9Ck92rcXe0SvWjM-80" style="edgeStyle=orthogonalEdgeStyle;rounded=0;orthogonalLoop=1;jettySize=auto;html=1;entryDx=0;entryDy=0;noEdgeStyle=1;fontSize=12;" parent="1" source="Te6tt9Ck92rcXe0SvWjM-77" target="Te6tt9Ck92rcXe0SvWjM-23" edge="1">
          <mxGeometry relative="1" as="geometry">
            <Array as="points" />
          </mxGeometry>
        </mxCell>
        <mxCell id="Te6tt9Ck92rcXe0SvWjM-82" value="" style="edgeStyle=orthogonalEdgeStyle;rounded=0;orthogonalLoop=1;jettySize=auto;html=1;noEdgeStyle=1;strokeColor=#FF0000;fontSize=12;" parent="1" source="Te6tt9Ck92rcXe0SvWjM-77" target="Te6tt9Ck92rcXe0SvWjM-81" edge="1">
          <mxGeometry relative="1" as="geometry">
            <Array as="points" />
          </mxGeometry>
        </mxCell>
        <mxCell id="Te6tt9Ck92rcXe0SvWjM-77" value="kind == pod" style="rhombus;whiteSpace=wrap;html=1;fontStyle=0;fontSize=12;" parent="1" vertex="1">
          <mxGeometry x="461" y="632" width="90" height="30" as="geometry" />
        </mxCell>
        <mxCell id="Te6tt9Ck92rcXe0SvWjM-84" value="" style="edgeStyle=orthogonalEdgeStyle;rounded=0;orthogonalLoop=1;jettySize=auto;html=1;fontSize=12;noEdgeStyle=1;" parent="1" source="Te6tt9Ck92rcXe0SvWjM-81" target="Te6tt9Ck92rcXe0SvWjM-83" edge="1">
          <mxGeometry relative="1" as="geometry" />
        </mxCell>
        <mxCell id="Te6tt9Ck92rcXe0SvWjM-87" value="" style="edgeStyle=orthogonalEdgeStyle;rounded=0;orthogonalLoop=1;jettySize=auto;html=1;noEdgeStyle=1;fontSize=12;" parent="1" source="Te6tt9Ck92rcXe0SvWjM-81" target="Te6tt9Ck92rcXe0SvWjM-86" edge="1">
          <mxGeometry relative="1" as="geometry">
            <Array as="points" />
          </mxGeometry>
        </mxCell>
        <mxCell id="Te6tt9Ck92rcXe0SvWjM-89" value="" style="edgeStyle=orthogonalEdgeStyle;rounded=0;orthogonalLoop=1;jettySize=auto;html=1;noEdgeStyle=1;fontSize=12;" parent="1" source="Te6tt9Ck92rcXe0SvWjM-81" target="Te6tt9Ck92rcXe0SvWjM-88" edge="1">
          <mxGeometry relative="1" as="geometry">
            <Array as="points" />
          </mxGeometry>
        </mxCell>
        <mxCell id="Te6tt9Ck92rcXe0SvWjM-110" style="edgeStyle=orthogonalEdgeStyle;rounded=0;orthogonalLoop=1;jettySize=auto;html=1;entryDx=0;entryDy=0;noEdgeStyle=1;strokeColor=#FF0000;fontSize=12;" parent="1" source="Te6tt9Ck92rcXe0SvWjM-81" target="Te6tt9Ck92rcXe0SvWjM-109" edge="1">
          <mxGeometry relative="1" as="geometry">
            <Array as="points" />
          </mxGeometry>
        </mxCell>
        <mxCell id="Te6tt9Ck92rcXe0SvWjM-81" value="kind == replicaset" style="rhombus;whiteSpace=wrap;html=1;fontStyle=0;fontSize=12;" parent="1" vertex="1">
          <mxGeometry x="341" y="562" width="120" height="30" as="geometry" />
        </mxCell>
        <mxCell id="Te6tt9Ck92rcXe0SvWjM-91" value="" style="edgeStyle=orthogonalEdgeStyle;rounded=0;orthogonalLoop=1;jettySize=auto;html=1;noEdgeStyle=1;fontSize=12;" parent="1" source="Te6tt9Ck92rcXe0SvWjM-83" target="Te6tt9Ck92rcXe0SvWjM-90" edge="1">
          <mxGeometry relative="1" as="geometry">
            <Array as="points" />
          </mxGeometry>
        </mxCell>
        <mxCell id="Te6tt9Ck92rcXe0SvWjM-83" value="replica:" style="ellipse;whiteSpace=wrap;html=1;fontStyle=0;fontSize=12;" parent="1" vertex="1">
          <mxGeometry x="311" y="602" width="60" height="30" as="geometry" />
        </mxCell>
        <mxCell id="cD0YtMm21OA0cVFLO4rJ-30" style="edgeStyle=orthogonalEdgeStyle;rounded=0;orthogonalLoop=1;jettySize=auto;html=1;noEdgeStyle=1;" edge="1" parent="1" source="Te6tt9Ck92rcXe0SvWjM-86" target="cD0YtMm21OA0cVFLO4rJ-27">
          <mxGeometry relative="1" as="geometry" />
        </mxCell>
        <mxCell id="Te6tt9Ck92rcXe0SvWjM-86" value="selector:" style="ellipse;whiteSpace=wrap;html=1;fontStyle=0;fontSize=12;" parent="1" vertex="1">
          <mxGeometry x="231" y="562" width="70" height="30" as="geometry" />
        </mxCell>
        <mxCell id="Te6tt9Ck92rcXe0SvWjM-98" style="edgeStyle=orthogonalEdgeStyle;rounded=0;orthogonalLoop=1;jettySize=auto;html=1;entryX=1;entryY=0.5;entryDx=0;entryDy=0;noEdgeStyle=1;fontSize=12;" parent="1" source="Te6tt9Ck92rcXe0SvWjM-88" target="Te6tt9Ck92rcXe0SvWjM-6" edge="1">
          <mxGeometry relative="1" as="geometry">
            <mxPoint x="640" y="130" as="targetPoint" />
          </mxGeometry>
        </mxCell>
        <mxCell id="Te6tt9Ck92rcXe0SvWjM-99" style="rounded=0;orthogonalLoop=1;jettySize=auto;html=1;entryX=1;entryY=0.5;entryDx=0;entryDy=0;elbow=vertical;noEdgeStyle=1;fontSize=12;" parent="1" source="Te6tt9Ck92rcXe0SvWjM-88" target="Te6tt9Ck92rcXe0SvWjM-8" edge="1">
          <mxGeometry relative="1" as="geometry">
            <mxPoint x="1240" y="100" as="targetPoint" />
          </mxGeometry>
        </mxCell>
        <mxCell id="Te6tt9Ck92rcXe0SvWjM-88" value="template:" style="ellipse;whiteSpace=wrap;html=1;fontStyle=0;fontSize=12;" parent="1" vertex="1">
          <mxGeometry x="441" y="482" width="70" height="30" as="geometry" />
        </mxCell>
        <mxCell id="Te6tt9Ck92rcXe0SvWjM-90" value="" style="whiteSpace=wrap;html=1;fontStyle=0;fontSize=12;" parent="1" vertex="1">
          <mxGeometry x="291" y="682" width="50" height="40" as="geometry" />
        </mxCell>
        <mxCell id="Te6tt9Ck92rcXe0SvWjM-95" value="" style="edgeStyle=orthogonalEdgeStyle;rounded=0;orthogonalLoop=1;jettySize=auto;html=1;noEdgeStyle=1;fontSize=12;" parent="1" source="Te6tt9Ck92rcXe0SvWjM-92" target="Te6tt9Ck92rcXe0SvWjM-94" edge="1">
          <mxGeometry relative="1" as="geometry">
            <Array as="points" />
          </mxGeometry>
        </mxCell>
        <mxCell id="Te6tt9Ck92rcXe0SvWjM-92" value="matchLabels:" style="ellipse;whiteSpace=wrap;html=1;fontStyle=0;fontSize=12;" parent="1" vertex="1">
          <mxGeometry x="-9" y="672" width="90" height="30" as="geometry" />
        </mxCell>
        <mxCell id="Te6tt9Ck92rcXe0SvWjM-97" value="" style="edgeStyle=orthogonalEdgeStyle;rounded=0;orthogonalLoop=1;jettySize=auto;html=1;noEdgeStyle=1;fontSize=12;" parent="1" source="Te6tt9Ck92rcXe0SvWjM-94" target="Te6tt9Ck92rcXe0SvWjM-96" edge="1">
          <mxGeometry relative="1" as="geometry">
            <Array as="points" />
          </mxGeometry>
        </mxCell>
        <mxCell id="Te6tt9Ck92rcXe0SvWjM-94" value="app:" style="ellipse;whiteSpace=wrap;html=1;fontStyle=0;fontSize=12;" parent="1" vertex="1">
          <mxGeometry x="-79" y="682" width="50" height="30" as="geometry" />
        </mxCell>
        <mxCell id="Te6tt9Ck92rcXe0SvWjM-96" value="" style="whiteSpace=wrap;html=1;fontStyle=0;fontSize=12;" parent="1" vertex="1">
          <mxGeometry x="-169" y="692" width="50" height="40" as="geometry" />
        </mxCell>
        <mxCell id="Te6tt9Ck92rcXe0SvWjM-102" value="" style="whiteSpace=wrap;html=1;fontSize=12;" parent="1" vertex="1">
          <mxGeometry x="721" y="42" width="50" height="40" as="geometry" />
        </mxCell>
        <mxCell id="Te6tt9Ck92rcXe0SvWjM-103" value="" style="whiteSpace=wrap;html=1;fontSize=12;" parent="1" vertex="1">
          <mxGeometry x="551" y="32" width="50" height="40" as="geometry" />
        </mxCell>
        <mxCell id="Te6tt9Ck92rcXe0SvWjM-107" value="Deployment" style="whiteSpace=wrap;html=1;fontSize=12;" parent="1" vertex="1">
          <mxGeometry x="801" y="492" width="90" height="30" as="geometry" />
        </mxCell>
        <mxCell id="Te6tt9Ck92rcXe0SvWjM-111" style="edgeStyle=orthogonalEdgeStyle;rounded=0;orthogonalLoop=1;jettySize=auto;html=1;entryX=0.5;entryY=1;entryDx=0;entryDy=0;noEdgeStyle=1;fontSize=12;" parent="1" source="Te6tt9Ck92rcXe0SvWjM-109" target="Te6tt9Ck92rcXe0SvWjM-88" edge="1">
          <mxGeometry relative="1" as="geometry" />
        </mxCell>
        <mxCell id="Te6tt9Ck92rcXe0SvWjM-112" style="edgeStyle=orthogonalEdgeStyle;rounded=0;orthogonalLoop=1;jettySize=auto;html=1;entryX=0.5;entryY=1;entryDx=0;entryDy=0;noEdgeStyle=1;fontSize=12;" parent="1" source="Te6tt9Ck92rcXe0SvWjM-109" target="Te6tt9Ck92rcXe0SvWjM-83" edge="1">
          <mxGeometry relative="1" as="geometry" />
        </mxCell>
        <mxCell id="Te6tt9Ck92rcXe0SvWjM-113" style="edgeStyle=orthogonalEdgeStyle;rounded=0;orthogonalLoop=1;jettySize=auto;html=1;entryX=0.5;entryY=1;entryDx=0;entryDy=0;noEdgeStyle=1;fontSize=12;" parent="1" source="Te6tt9Ck92rcXe0SvWjM-109" target="Te6tt9Ck92rcXe0SvWjM-86" edge="1">
          <mxGeometry relative="1" as="geometry" />
        </mxCell>
        <mxCell id="cD0YtMm21OA0cVFLO4rJ-9" style="edgeStyle=orthogonalEdgeStyle;rounded=0;orthogonalLoop=1;jettySize=auto;html=1;exitX=0.5;exitY=0;exitDx=0;exitDy=0;entryX=0.5;entryY=1;entryDx=0;entryDy=0;strokeColor=#FF0000;noEdgeStyle=1;" edge="1" parent="1" source="Te6tt9Ck92rcXe0SvWjM-109" target="cD0YtMm21OA0cVFLO4rJ-2">
          <mxGeometry relative="1" as="geometry" />
        </mxCell>
        <mxCell id="Te6tt9Ck92rcXe0SvWjM-109" value="kind == deployment" style="rhombus;whiteSpace=wrap;html=1;fontStyle=0;fontSize=12;" parent="1" vertex="1">
          <mxGeometry x="281" y="512" width="130" height="30" as="geometry" />
        </mxCell>
        <mxCell id="cD0YtMm21OA0cVFLO4rJ-11" value="" style="edgeStyle=orthogonalEdgeStyle;rounded=0;orthogonalLoop=1;jettySize=auto;html=1;noEdgeStyle=1;" edge="1" parent="1" source="cD0YtMm21OA0cVFLO4rJ-2" target="cD0YtMm21OA0cVFLO4rJ-10">
          <mxGeometry relative="1" as="geometry" />
        </mxCell>
        <mxCell id="cD0YtMm21OA0cVFLO4rJ-13" value="" style="edgeStyle=orthogonalEdgeStyle;rounded=0;orthogonalLoop=1;jettySize=auto;html=1;noEdgeStyle=1;" edge="1" parent="1" source="cD0YtMm21OA0cVFLO4rJ-2" target="cD0YtMm21OA0cVFLO4rJ-12">
          <mxGeometry relative="1" as="geometry" />
        </mxCell>
        <mxCell id="cD0YtMm21OA0cVFLO4rJ-14" style="edgeStyle=orthogonalEdgeStyle;rounded=0;orthogonalLoop=1;jettySize=auto;html=1;exitX=0;exitY=1;exitDx=0;exitDy=0;entryX=0.5;entryY=0;entryDx=0;entryDy=0;noEdgeStyle=1;" edge="1" parent="1" source="cD0YtMm21OA0cVFLO4rJ-2" target="Te6tt9Ck92rcXe0SvWjM-86">
          <mxGeometry relative="1" as="geometry" />
        </mxCell>
        <mxCell id="cD0YtMm21OA0cVFLO4rJ-2" value="kind == service" style="rhombus;whiteSpace=wrap;html=1;" vertex="1" parent="1">
          <mxGeometry x="191" y="452" width="100" height="30" as="geometry" />
        </mxCell>
        <mxCell id="cD0YtMm21OA0cVFLO4rJ-5" value="Service" style="rounded=0;whiteSpace=wrap;html=1;" vertex="1" parent="1">
          <mxGeometry x="811" y="622" width="60" height="30" as="geometry" />
        </mxCell>
        <mxCell id="cD0YtMm21OA0cVFLO4rJ-16" value="" style="edgeStyle=orthogonalEdgeStyle;rounded=0;orthogonalLoop=1;jettySize=auto;html=1;noEdgeStyle=1;" edge="1" parent="1" source="cD0YtMm21OA0cVFLO4rJ-10" target="cD0YtMm21OA0cVFLO4rJ-15">
          <mxGeometry relative="1" as="geometry" />
        </mxCell>
        <mxCell id="cD0YtMm21OA0cVFLO4rJ-10" value="port:" style="ellipse;whiteSpace=wrap;html=1;" vertex="1" parent="1">
          <mxGeometry x="101" y="392" width="50" height="30" as="geometry" />
        </mxCell>
        <mxCell id="cD0YtMm21OA0cVFLO4rJ-24" value="" style="edgeStyle=orthogonalEdgeStyle;rounded=0;orthogonalLoop=1;jettySize=auto;html=1;noEdgeStyle=1;" edge="1" parent="1" source="cD0YtMm21OA0cVFLO4rJ-12" target="cD0YtMm21OA0cVFLO4rJ-23">
          <mxGeometry relative="1" as="geometry" />
        </mxCell>
        <mxCell id="cD0YtMm21OA0cVFLO4rJ-26" value="" style="edgeStyle=orthogonalEdgeStyle;rounded=0;orthogonalLoop=1;jettySize=auto;html=1;noEdgeStyle=1;" edge="1" parent="1" source="cD0YtMm21OA0cVFLO4rJ-12" target="cD0YtMm21OA0cVFLO4rJ-25">
          <mxGeometry relative="1" as="geometry" />
        </mxCell>
        <mxCell id="cD0YtMm21OA0cVFLO4rJ-12" value="type:" style="ellipse;whiteSpace=wrap;html=1;" vertex="1" parent="1">
          <mxGeometry x="211" y="342" width="50" height="30" as="geometry" />
        </mxCell>
        <mxCell id="cD0YtMm21OA0cVFLO4rJ-18" value="" style="edgeStyle=orthogonalEdgeStyle;rounded=0;orthogonalLoop=1;jettySize=auto;html=1;noEdgeStyle=1;" edge="1" parent="1" source="cD0YtMm21OA0cVFLO4rJ-15" target="cD0YtMm21OA0cVFLO4rJ-17">
          <mxGeometry relative="1" as="geometry" />
        </mxCell>
        <mxCell id="cD0YtMm21OA0cVFLO4rJ-22" value="" style="edgeStyle=orthogonalEdgeStyle;rounded=0;orthogonalLoop=1;jettySize=auto;html=1;noEdgeStyle=1;" edge="1" parent="1" source="cD0YtMm21OA0cVFLO4rJ-15" target="cD0YtMm21OA0cVFLO4rJ-21">
          <mxGeometry relative="1" as="geometry" />
        </mxCell>
        <mxCell id="cD0YtMm21OA0cVFLO4rJ-15" value="-" style="ellipse;whiteSpace=wrap;html=1;" vertex="1" parent="1">
          <mxGeometry x="11" y="332" width="50" height="30" as="geometry" />
        </mxCell>
        <mxCell id="cD0YtMm21OA0cVFLO4rJ-17" value="port:" style="ellipse;whiteSpace=wrap;html=1;" vertex="1" parent="1">
          <mxGeometry x="-69" y="332" width="50" height="30" as="geometry" />
        </mxCell>
        <mxCell id="cD0YtMm21OA0cVFLO4rJ-21" value="targetPort:" style="ellipse;whiteSpace=wrap;html=1;" vertex="1" parent="1">
          <mxGeometry x="-26" y="252" width="50" height="30" as="geometry" />
        </mxCell>
        <mxCell id="cD0YtMm21OA0cVFLO4rJ-23" value="NodePort" style="ellipse;whiteSpace=wrap;html=1;" vertex="1" parent="1">
          <mxGeometry x="241.5" y="262" width="50" height="30" as="geometry" />
        </mxCell>
        <mxCell id="cD0YtMm21OA0cVFLO4rJ-25" value="ClusterIP" style="ellipse;whiteSpace=wrap;html=1;" vertex="1" parent="1">
          <mxGeometry x="151" y="272" width="50" height="30" as="geometry" />
        </mxCell>
        <mxCell id="cD0YtMm21OA0cVFLO4rJ-31" style="edgeStyle=orthogonalEdgeStyle;rounded=0;orthogonalLoop=1;jettySize=auto;html=1;entryX=1;entryY=0.5;entryDx=0;entryDy=0;noEdgeStyle=1;" edge="1" parent="1" source="cD0YtMm21OA0cVFLO4rJ-27" target="Te6tt9Ck92rcXe0SvWjM-92">
          <mxGeometry relative="1" as="geometry" />
        </mxCell>
        <mxCell id="cD0YtMm21OA0cVFLO4rJ-27" value="kind == service, replicaset, deployment" style="rhombus;whiteSpace=wrap;html=1;" vertex="1" parent="1">
          <mxGeometry x="91" y="668.5" width="100" height="30" as="geometry" />
        </mxCell>
        <mxCell id="cD0YtMm21OA0cVFLO4rJ-35" style="edgeStyle=orthogonalEdgeStyle;rounded=0;orthogonalLoop=1;jettySize=auto;html=1;entryX=0.5;entryY=0;entryDx=0;entryDy=0;noEdgeStyle=1;" edge="1" parent="1" source="cD0YtMm21OA0cVFLO4rJ-28" target="cD0YtMm21OA0cVFLO4rJ-33">
          <mxGeometry relative="1" as="geometry" />
        </mxCell>
        <mxCell id="cD0YtMm21OA0cVFLO4rJ-28" value="kind == service" style="rhombus;whiteSpace=wrap;html=1;" vertex="1" parent="1">
          <mxGeometry x="31" y="772" width="100" height="30" as="geometry" />
        </mxCell>
        <mxCell id="cD0YtMm21OA0cVFLO4rJ-29" style="edgeStyle=orthogonalEdgeStyle;rounded=0;orthogonalLoop=1;jettySize=auto;html=1;exitX=1;exitY=0.5;exitDx=0;exitDy=0;entryX=-0.05;entryY=0.575;entryDx=0;entryDy=0;entryPerimeter=0;strokeColor=#FF0000;noEdgeStyle=1;" edge="1" parent="1" source="cD0YtMm21OA0cVFLO4rJ-27" target="cD0YtMm21OA0cVFLO4rJ-28">
          <mxGeometry relative="1" as="geometry" />
        </mxCell>
        <mxCell id="cD0YtMm21OA0cVFLO4rJ-32" value="" style="edgeStyle=orthogonalEdgeStyle;rounded=0;orthogonalLoop=1;jettySize=auto;html=1;noEdgeStyle=1;fontSize=12;" edge="1" parent="1" source="cD0YtMm21OA0cVFLO4rJ-33" target="cD0YtMm21OA0cVFLO4rJ-34">
          <mxGeometry relative="1" as="geometry">
            <Array as="points" />
          </mxGeometry>
        </mxCell>
        <mxCell id="cD0YtMm21OA0cVFLO4rJ-33" value="app:" style="ellipse;whiteSpace=wrap;html=1;fontStyle=0;fontSize=12;" vertex="1" parent="1">
          <mxGeometry x="-9" y="862" width="50" height="30" as="geometry" />
        </mxCell>
        <mxCell id="cD0YtMm21OA0cVFLO4rJ-34" value="" style="whiteSpace=wrap;html=1;fontStyle=0;fontSize=12;" vertex="1" parent="1">
          <mxGeometry x="-59" y="932" width="50" height="40" as="geometry" />
        </mxCell>
      </root>
    </mxGraphModel>
  </diagram>
</mxfile>
